<svg width="1200" height="630" viewBox="0 0 1200 630" xmlns="http://www.w3.org/2000/svg">
  <!-- Background gradient -->
  <defs>
    <linearGradient id="bg3" x1="0%" y1="0%" x2="100%" y2="100%">
      <stop offset="0%" style="stop-color:#4facfe;stop-opacity:1" />
      <stop offset="100%" style="stop-color:#00f2fe;stop-opacity:1" />
    </linearGradient>
    <pattern id="hexagon" width="60" height="52" patternUnits="userSpaceOnUse">
      <polygon points="30,1 45,13 45,39 30,51 15,39 15,13" fill="none" stroke="white" stroke-width="0.5" opacity="0.15"/>
    </pattern>
  </defs>
  
  <!-- Background -->
  <rect width="1200" height="630" fill="url(#bg3)"/>
  <rect width="1200" height="630" fill="url(#hexagon)"/>
  
  <!-- Shield/Security icon -->
  <g transform="translate(200, 290)">
    <path d="M 0,-70 L 50,-50 L 50,20 Q 50,60 0,80 Q -50,60 -50,20 L -50,-50 Z" 
          fill="none" stroke="white" stroke-width="4" opacity="0.9"/>
    <path d="M 0,-50 L 0,50 M -30,-20 L 30,-20" stroke="white" stroke-width="3" opacity="0.7"/>
    <circle cx="0" cy="-20" r="15" fill="none" stroke="white" stroke-width="3" opacity="0.7"/>
  </g>
  
  <!-- Performance meter -->
  <g transform="translate(600, 290)">
    <circle cx="0" cy="0" r="70" fill="none" stroke="white" stroke-width="4" opacity="0.9"/>
    <path d="M -50,-50 A 70,70 0 1,1 50,-50" fill="none" stroke="white" stroke-width="8" opacity="0.8"/>
    <path d="M 0,-70 L 0,-50" stroke="white" stroke-width="4" opacity="0.9"/>
    <path d="M -70,0 L -50,0" stroke="white" stroke-width="4" opacity="0.9"/>
    <path d="M 70,0 L 50,0" stroke="white" stroke-width="4" opacity="0.9"/>
    <!-- Needle -->
    <path d="M 0,0 L 35,-35" stroke="white" stroke-width="3" opacity="0.9"/>
    <circle cx="0" cy="0" r="8" fill="white" opacity="0.9"/>
  </g>
  
  <!-- Production rocket -->
  <g transform="translate(1000, 290)">
    <path d="M 0,-80 Q -20,-60 -20,-30 L -20,30 Q -20,50 -10,50 L 10,50 Q 20,50 20,30 L 20,-30 Q 20,-60 0,-80 Z" 
          fill="white" opacity="0.8"/>
    <circle cx="0" cy="-20" r="10" fill="none" stroke="#4facfe" stroke-width="3"/>
    <path d="M -20,20 L -40,50 L -20,40 M 20,20 L 40,50 L 20,40" fill="white" opacity="0.7"/>
    <!-- Flame -->
    <path d="M -10,50 Q -5,70 0,80 Q 5,70 10,50" fill="white" opacity="0.6"/>
    <path d="M -5,50 Q 0,65 5,50" fill="white" opacity="0.8"/>
  </g>
  
  <!-- Title text -->
  <text x="600" y="100" font-family="Arial, sans-serif" font-size="48" font-weight="bold" fill="white" text-anchor="middle">
    Master Kubernetes in Hours with AI
  </text>
  
  <!-- Part 3 indicator -->
  <rect x="470" y="130" width="260" height="40" rx="20" fill="white" opacity="0.2"/>
  <text x="600" y="157" font-family="Arial, sans-serif" font-size="24" font-weight="600" fill="white" text-anchor="middle">
    PART 3 OF 3
  </text>
  
  <!-- Subtitle -->
  <text x="600" y="430" font-family="Arial, sans-serif" font-size="36" font-weight="600" fill="white" text-anchor="middle">
    Production-Ready
  </text>
  <text x="600" y="475" font-family="Arial, sans-serif" font-size="36" font-weight="600" fill="white" text-anchor="middle">
    in Record Time
  </text>
  
  <!-- Feature highlights -->
  <g transform="translate(600, 520)">
    <rect x="-180" y="-15" width="110" height="30" rx="15" fill="white" opacity="0.2"/>
    <text x="-125" y="5" font-family="Arial, sans-serif" font-size="14" fill="white" text-anchor="middle">Security</text>
    
    <rect x="-60" y="-15" width="120" height="30" rx="15" fill="white" opacity="0.2"/>
    <text x="0" y="5" font-family="Arial, sans-serif" font-size="14" fill="white" text-anchor="middle">High Availability</text>
    
    <rect x="70" y="-15" width="110" height="30" rx="15" fill="white" opacity="0.2"/>
    <text x="125" y="5" font-family="Arial, sans-serif" font-size="14" fill="white" text-anchor="middle">Monitoring</text>
  </g>
  
  <!-- Bottom tagline -->
  <rect x="0" y="550" width="1200" height="80" fill="black" opacity="0.2"/>
  <text x="600" y="595" font-family="Arial, sans-serif" font-size="20" fill="white" text-anchor="middle" opacity="0.9">
    🔒 Enterprise Security • 📊 Performance Optimization • 🎯 Best Practices
  </text>
</svg>