<svg width="1200" height="630" viewBox="0 0 1200 630" xmlns="http://www.w3.org/2000/svg">
  <!-- Background gradient -->
  <defs>
    <linearGradient id="bg2" x1="0%" y1="0%" x2="100%" y2="100%">
      <stop offset="0%" style="stop-color:#f093fb;stop-opacity:1" />
      <stop offset="100%" style="stop-color:#f5576c;stop-opacity:1" />
    </linearGradient>
    <pattern id="dots2" width="30" height="30" patternUnits="userSpaceOnUse">
      <circle cx="15" cy="15" r="2" fill="white" opacity="0.2"/>
    </pattern>
  </defs>
  
  <!-- Background -->
  <rect width="1200" height="630" fill="url(#bg2)"/>
  <rect width="1200" height="630" fill="url(#dots2)"/>
  
  <!-- Container/Pod illustration -->
  <g transform="translate(200, 280)">
    <!-- Pod outline -->
    <rect x="-80" y="-60" width="160" height="120" rx="10" fill="none" stroke="white" stroke-width="3" opacity="0.9"/>
    <!-- Containers inside -->
    <rect x="-65" y="-45" width="45" height="40" rx="5" fill="white" opacity="0.7"/>
    <rect x="-10" y="-45" width="45" height="40" rx="5" fill="white" opacity="0.7"/>
    <rect x="-65" y="5" width="45" height="40" rx="5" fill="white" opacity="0.7"/>
    <rect x="-10" y="5" width="45" height="40" rx="5" fill="white" opacity="0.7"/>
  </g>
  
  <!-- Deployment arrows -->
  <g transform="translate(600, 280)">
    <circle cx="0" cy="0" r="60" fill="none" stroke="white" stroke-width="3" opacity="0.8"/>
    <path d="M 0,-60 L 0,60 M -60,0 L 60,0" stroke="white" stroke-width="3" opacity="0.8"/>
    <path d="M 0,-60 L 10,-50 M 0,-60 L -10,-50" stroke="white" stroke-width="3" opacity="0.8"/>
    <path d="M 60,0 L 50,-10 M 60,0 L 50,10" stroke="white" stroke-width="3" opacity="0.8"/>
    <path d="M 0,60 L 10,50 M 0,60 L -10,50" stroke="white" stroke-width="3" opacity="0.8"/>
    <path d="M -60,0 L -50,-10 M -60,0 L -50,10" stroke="white" stroke-width="3" opacity="0.8"/>
  </g>
  
  <!-- AI network -->
  <g transform="translate(1000, 280)">
    <!-- Neural network visualization -->
    <circle cx="-30" cy="-30" r="8" fill="white" opacity="0.8"/>
    <circle cx="30" cy="-30" r="8" fill="white" opacity="0.8"/>
    <circle cx="-30" cy="30" r="8" fill="white" opacity="0.8"/>
    <circle cx="30" cy="30" r="8" fill="white" opacity="0.8"/>
    <circle cx="0" cy="0" r="12" fill="white" opacity="0.9"/>
    <!-- Connections -->
    <path d="M -30,-30 L 0,0 L 30,-30 M -30,30 L 0,0 L 30,30" stroke="white" stroke-width="2" opacity="0.6"/>
    <path d="M -30,-30 L 30,30 M 30,-30 L -30,30" stroke="white" stroke-width="1" opacity="0.4"/>
  </g>
  
  <!-- Title text -->
  <text x="600" y="100" font-family="Arial, sans-serif" font-size="48" font-weight="bold" fill="white" text-anchor="middle">
    Master Kubernetes in Hours with AI
  </text>
  
  <!-- Part 2 indicator -->
  <rect x="470" y="130" width="260" height="40" rx="20" fill="white" opacity="0.2"/>
  <text x="600" y="157" font-family="Arial, sans-serif" font-size="24" font-weight="600" fill="white" text-anchor="middle">
    PART 2 OF 3
  </text>
  
  <!-- Subtitle -->
  <text x="600" y="430" font-family="Arial, sans-serif" font-size="36" font-weight="600" fill="white" text-anchor="middle">
    Real-World Deployments
  </text>
  <text x="600" y="475" font-family="Arial, sans-serif" font-size="36" font-weight="600" fill="white" text-anchor="middle">
    Made Simple
  </text>
  
  <!-- Feature badges -->
  <g transform="translate(600, 520)">
    <rect x="-150" y="-15" width="100" height="30" rx="15" fill="white" opacity="0.2"/>
    <text x="-100" y="5" font-family="Arial, sans-serif" font-size="14" fill="white" text-anchor="middle">YAML</text>
    
    <rect x="-40" y="-15" width="100" height="30" rx="15" fill="white" opacity="0.2"/>
    <text x="10" y="5" font-family="Arial, sans-serif" font-size="14" fill="white" text-anchor="middle">ConfigMaps</text>
    
    <rect x="70" y="-15" width="100" height="30" rx="15" fill="white" opacity="0.2"/>
    <text x="120" y="5" font-family="Arial, sans-serif" font-size="14" fill="white" text-anchor="middle">Services</text>
  </g>
  
  <!-- Bottom tagline -->
  <rect x="0" y="550" width="1200" height="80" fill="black" opacity="0.2"/>
  <text x="600" y="595" font-family="Arial, sans-serif" font-size="20" fill="white" text-anchor="middle" opacity="0.9">
    🛠️ Hands-On Practice • 📦 Complete Examples • ⚡ Deploy with Confidence
  </text>
</svg>