<svg width="1200" height="630" viewBox="0 0 1200 630" xmlns="http://www.w3.org/2000/svg">
  <!-- Background gradient -->
  <defs>
    <linearGradient id="bg1" x1="0%" y1="0%" x2="100%" y2="100%">
      <stop offset="0%" style="stop-color:#667eea;stop-opacity:1" />
      <stop offset="100%" style="stop-color:#764ba2;stop-opacity:1" />
    </linearGradient>
    <pattern id="grid1" width="40" height="40" patternUnits="userSpaceOnUse">
      <path d="M 40 0 L 0 0 0 40" fill="none" stroke="white" stroke-width="0.5" opacity="0.2"/>
    </pattern>
  </defs>
  
  <!-- Background -->
  <rect width="1200" height="630" fill="url(#bg1)"/>
  <rect width="1200" height="630" fill="url(#grid1)"/>
  
  <!-- Kubernetes wheel icon -->
  <g transform="translate(150, 315)">
    <circle cx="0" cy="0" r="80" fill="none" stroke="white" stroke-width="4" opacity="0.9"/>
    <g id="spoke1">
      <path d="M 0,-80 L 0,-50 L -15,-35 L 0,0 Z" fill="white" opacity="0.8"/>
      <path d="M 0,-80 L 0,-50 L 15,-35 L 0,0 Z" fill="white" opacity="0.6"/>
    </g>
    <use href="#spoke1" transform="rotate(60)"/>
    <use href="#spoke1" transform="rotate(120)"/>
    <use href="#spoke1" transform="rotate(180)"/>
    <use href="#spoke1" transform="rotate(240)"/>
    <use href="#spoke1" transform="rotate(300)"/>
    <circle cx="0" cy="0" r="25" fill="white" opacity="0.9"/>
  </g>
  
  <!-- AI Brain icon -->
  <g transform="translate(1050, 315)">
    <circle cx="0" cy="0" r="70" fill="none" stroke="#ffffff" stroke-width="3" opacity="0.8" stroke-dasharray="5,5"/>
    <path d="M -40,-20 Q -20,-40 0,-30 Q 20,-40 40,-20 L 40,20 Q 20,40 0,30 Q -20,40 -40,20 Z" 
          fill="none" stroke="white" stroke-width="3" opacity="0.9"/>
    <circle cx="-20" cy="-5" r="8" fill="white" opacity="0.8"/>
    <circle cx="20" cy="-5" r="8" fill="white" opacity="0.8"/>
    <circle cx="0" cy="15" r="8" fill="white" opacity="0.8"/>
    <path d="M -20,-5 L 0,15 L 20,-5" fill="none" stroke="white" stroke-width="2" opacity="0.6"/>
  </g>
  
  <!-- Connection between K8s and AI -->
  <path d="M 250,315 Q 600,250 950,315" fill="none" stroke="white" stroke-width="2" opacity="0.4" stroke-dasharray="10,5"/>
  
  <!-- Title text -->
  <text x="600" y="140" font-family="Arial, sans-serif" font-size="48" font-weight="bold" fill="white" text-anchor="middle">
    Master Kubernetes in Hours with AI
  </text>
  
  <!-- Part 1 indicator -->
  <rect x="470" y="170" width="260" height="40" rx="20" fill="white" opacity="0.2"/>
  <text x="600" y="197" font-family="Arial, sans-serif" font-size="24" font-weight="600" fill="white" text-anchor="middle">
    PART 1 OF 3
  </text>
  
  <!-- Subtitle -->
  <text x="600" y="420" font-family="Arial, sans-serif" font-size="36" font-weight="600" fill="white" text-anchor="middle">
    From Zero to Understanding
  </text>
  <text x="600" y="465" font-family="Arial, sans-serif" font-size="36" font-weight="600" fill="white" text-anchor="middle">
    Core Architecture
  </text>
  
  <!-- Bottom tagline -->
  <rect x="0" y="550" width="1200" height="80" fill="black" opacity="0.2"/>
  <text x="600" y="595" font-family="Arial, sans-serif" font-size="20" fill="white" text-anchor="middle" opacity="0.9">
    🤖 AI-Powered Learning • 📚 Comprehensive Guide • 🚀 Production Ready
  </text>
</svg>